<?xml version="1.0" encoding="utf-8"?>
<!-- Generator: Adobe Illustrator 24.0.2, SVG Export Plug-In . SVG Version: 6.00 Build 0)  -->
<svg version="1.1" id="Слой_1" xmlns="http://www.w3.org/2000/svg" xmlns:xlink="http://www.w3.org/1999/xlink" x="0px" y="0px"
	 viewBox="0 0 595.3 841.9" style="enable-background:new 0 0 595.3 841.9;" xml:space="preserve">
<style type="text/css">
	.st0{fill:#25EC39;}
</style>
<g>
	<path class="st0" d="M474.6,239c-13.2,13.2-25.6,25.9-38,38.6c-89.3-92.4-207.6-59.7-259.7,0c-58.6,66.8-57.2,167.6,2,232.4
		c55.8,60.8,172.7,85.4,257.2-2.3c1.7,1.4,3.7,2.5,5.4,4.2c11,11,21.7,22,32.7,32.7c-40.3,53.5-134.1,94.4-228.2,68.7
		C152.6,588,82.5,502.9,77.1,407.2c-5.4-100.8,53-193,144.5-227.9C312.6,144.9,419.1,169.7,474.6,239z"/>
	<path class="st0" d="M167.5,411.4c57.2,0.3,113.5,0.3,169.9,0.8c2.8,0,6.5,1.4,8.7,3.4c22.5,22,44.5,44.2,66.2,66.2
		c-27,41.4-91.8,61.1-145.9,45.9C213.7,512.8,168.7,460.7,167.5,411.4z"/>
	<path class="st0" d="M413.2,302.4c-22.5,22.5-44.2,44.2-66.5,65.6c-2.3,2.3-6.5,3.9-9.9,3.9c-56.1,0.3-112.4,0-168.5-0.3
		c-0.3-45.6,41.4-95.2,89-112.4C311.5,239.9,380.2,257.6,413.2,302.4z"/>
	<path class="st0" d="M463.6,463.8c-39.7-0.3-71.5-32.7-71-72.1s32.7-70.7,72.7-70.1c39.7,0.3,71.3,32.4,70.7,72.1
		C535.7,433.4,503.9,464.1,463.6,463.8z"/>
</g>
</svg>
